<?xml version="1.0" encoding="UTF-8" standalone="no"?>
<!-- Created with Inkscape (http://www.inkscape.org/) -->

<svg
   width="200mm"
   height="200mm"
   viewBox="0 0 200 200"
   version="1.1"
   id="svg5"
   xml:space="preserve"
   sodipodi:docname="technologies.svg"
   inkscape:version="1.2.1 (9c6d41e410, 2022-07-14)"
   xmlns:inkscape="http://www.inkscape.org/namespaces/inkscape"
   xmlns:sodipodi="http://sodipodi.sourceforge.net/DTD/sodipodi-0.dtd"
   xmlns="http://www.w3.org/2000/svg"
   xmlns:svg="http://www.w3.org/2000/svg"><sodipodi:namedview
     id="namedview7"
     pagecolor="#000000"
     bordercolor="#000000"
     borderopacity="0.25"
     inkscape:showpageshadow="2"
     inkscape:pageopacity="0"
     inkscape:pagecheckerboard="0"
     inkscape:deskcolor="#d1d1d1"
     inkscape:document-units="mm"
     showgrid="false"
     inkscape:zoom="2.0510461"
     inkscape:cx="197.46021"
     inkscape:cy="353.96571"
     inkscape:window-width="2560"
     inkscape:window-height="1476"
     inkscape:window-x="-12"
     inkscape:window-y="-12"
     inkscape:window-maximized="1"
     inkscape:current-layer="g25"
     showguides="false" /><defs
     id="defs2" /><g
     inkscape:label="Layer 1"
     inkscape:groupmode="layer"
     id="layer1"><g
       fill="#61dafb"
       id="g25"
       transform="matrix(1.5175719,0,0,1.5175719,2.8753993,2.8751676)"><circle
         cx="64"
         cy="64.000046"
         r="9"
         id="circle21"
         style="stroke-width:0.789474;fill:#ffffff" /><path
         d="m 98.184209,49.157943 c -1.736842,-0.631579 -3.552631,-1.263157 -5.447368,-1.815789 0.473684,-1.894737 0.868421,-3.789474 1.18421,-5.605263 1.657895,-10.421053 -0.157894,-17.763158 -5.210526,-20.605263 -1.5,-0.868421 -3.157894,-1.263158 -5.052631,-1.263158 -5.526316,0 -12.552632,4.105263 -19.657895,10.973684 C 56.894736,23.973733 49.86842,19.86847 44.342105,19.86847 c -1.894737,0 -3.552632,0.394737 -5.052632,1.263158 -5.052631,2.921052 -6.868421,10.263158 -5.210526,20.605263 0.315789,1.815789 0.710526,3.710526 1.18421,5.605263 -1.894737,0.552632 -3.710526,1.105263 -5.447368,1.815789 -9.868421,3.789474 -15.236842,9 -15.236842,14.842106 0,5.842105 5.447369,11.052631 15.236842,14.842105 1.736842,0.631579 3.552631,1.263158 5.447368,1.815789 -0.473684,1.894737 -0.868421,3.789474 -1.18421,5.605263 -1.657895,10.421053 0.157895,17.763154 5.210526,20.605264 1.5,0.86842 3.157895,1.26316 5.052632,1.26316 5.605263,0 12.631578,-4.10527 19.657894,-10.973687 7.105263,6.868417 14.131579,10.973687 19.657895,10.973687 1.894737,0 3.552631,-0.39474 5.052631,-1.26316 5.052632,-2.92105 6.868421,-10.263159 5.210526,-20.605264 -0.315789,-1.815789 -0.710526,-3.710526 -1.18421,-5.605263 1.894737,-0.552631 3.710526,-1.105263 5.447368,-1.815789 9.868421,-3.789474 15.236841,-9 15.236841,-14.842105 0,-5.842106 -5.36842,-11.052632 -15.236841,-14.842106 z M 86.499999,25.078996 c 3.236842,1.894737 4.342105,7.736842 3,16.026316 -0.236842,1.657895 -0.631579,3.394737 -1.105263,5.210526 C 84.289473,45.36847 79.947367,44.736891 75.36842,44.342154 72.68421,40.55268 69.921052,37.157944 67.157894,34.078996 72.999999,28.315838 78.921052,24.36847 83.736841,24.36847 c 1.026316,0 1.973684,0.236842 2.763158,0.710526 z m -8.842105,46.815789 c -1.421053,2.526316 -3.078948,5.052632 -4.81579,7.578948 -2.921052,0.236842 -5.842105,0.315789 -8.842105,0.315789 -3.078947,0 -6,-0.07895 -8.842105,-0.315789 -1.736842,-2.526316 -3.315789,-5.052632 -4.736842,-7.578948 -1.5,-2.605263 -2.921053,-5.289473 -4.184211,-7.894736 1.263158,-2.605264 2.684211,-5.289474 4.184211,-7.894737 1.421053,-2.526316 3.078947,-5.052632 4.815789,-7.578948 2.921053,-0.236842 5.842106,-0.315789 8.842106,-0.315789 3.078947,0 5.999999,0.07895 8.842105,0.315789 1.736842,2.526316 3.315789,5.052632 4.736842,7.578948 1.5,2.605263 2.921052,5.289473 4.18421,7.894737 -1.342105,2.605263 -2.68421,5.210526 -4.18421,7.894736 z m 6.552631,-2.605263 c 1.184211,2.763158 2.131579,5.447369 3,8.131579 -2.68421,0.631579 -5.526316,1.105263 -8.526315,1.5 0.947368,-1.5 1.973684,-3.078947 2.842105,-4.736842 0.947368,-1.657895 1.815789,-3.31579 2.68421,-4.894737 z M 63.999999,90.684259 c -1.894737,-2.052632 -3.710526,-4.263158 -5.447368,-6.552632 1.815789,0.07895 3.631579,0.157895 5.447368,0.157895 1.81579,0 3.631579,-0.07895 5.447369,-0.157895 -1.736843,2.289474 -3.552632,4.5 -5.447369,6.552632 z M 49.315789,78.842154 c -3,-0.394737 -5.842105,-0.868421 -8.526316,-1.5 0.868421,-2.605263 1.81579,-5.368421 3,-8.131579 0.868421,1.578947 1.736842,3.236842 2.684211,4.815789 0.947368,1.736842 1.894736,3.236842 2.842105,4.81579 z M 43.789473,58.710575 c -1.18421,-2.763158 -2.131579,-5.447368 -3,-8.131579 2.684211,-0.631579 5.526316,-1.105263 8.526316,-1.5 -0.947369,1.5 -1.973684,3.078947 -2.842105,4.736842 -0.947369,1.657895 -1.81579,3.31579 -2.684211,4.894737 z M 63.999999,37.315838 c 1.894737,2.052632 3.710526,4.263158 5.447369,6.552632 -1.81579,-0.07895 -3.631579,-0.157895 -5.447369,-0.157895 -1.815789,0 -3.631579,0.07895 -5.447368,0.157895 1.736842,-2.289474 3.552631,-4.5 5.447368,-6.552632 z M 81.526315,53.894785 78.68421,49.157943 c 2.999999,0.394737 5.842105,0.868421 8.526315,1.5 -0.868421,2.605264 -1.815789,5.368421 -3,8.131579 -0.868421,-1.657894 -1.736842,-3.315789 -2.68421,-4.894737 z M 38.499999,41.105312 c -1.342105,-8.289474 -0.236842,-14.131579 3,-16.026316 0.789474,-0.473684 1.736842,-0.710526 2.763158,-0.710526 4.736842,0 10.657895,3.868421 16.578947,9.710526 -2.763157,3 -5.526315,6.473684 -8.210526,10.263158 -4.578947,0.394737 -8.921052,1.105263 -13.026315,1.973684 -0.473685,-1.815789 -0.789474,-3.552631 -1.105264,-5.210526 z M 19,64.000049 c 0,-3.710527 4.5,-7.657895 12.394736,-10.578948 1.578948,-0.631579 3.31579,-1.18421 5.052632,-1.657894 1.263158,3.947368 2.842105,8.131578 4.736842,12.315789 -1.894737,4.18421 -3.552632,8.289473 -4.736842,12.236842 C 25.552631,73.157943 19,68.421101 19,64.000049 Z M 41.499999,102.9211 c -3.236842,-1.89474 -4.342105,-7.736841 -3,-16.026315 0.236842,-1.657895 0.631579,-3.394737 1.105264,-5.210526 4.105263,0.947368 8.447368,1.578947 13.026315,1.973684 2.684211,3.789474 5.447369,7.184211 8.210526,10.263158 -5.842105,5.763158 -11.763157,9.710529 -16.578947,9.710529 -1.026316,0 -1.973684,-0.23684 -2.763158,-0.71053 z m 48,-16.026315 c 1.342105,8.289474 0.236842,14.131575 -3,16.026315 -0.789474,0.47369 -1.736842,0.71053 -2.763158,0.71053 -4.736842,0 -10.657895,-3.868424 -16.578947,-9.710529 2.763158,-3 5.526316,-6.473684 8.210526,-10.263158 4.578947,-0.394737 8.921053,-1.105263 13.026316,-1.973684 0.473684,1.815789 0.789473,3.552631 1.105263,5.210526 z M 96.605262,74.578996 C 95.026315,75.210575 93.289473,75.763206 91.55263,76.23689 90.289473,72.289522 88.710525,68.105312 86.815788,63.921101 88.710525,59.736891 90.36842,55.631628 91.55263,51.684259 102.44737,54.842154 109,59.578996 109,64.000049 c 0,3.710526 -4.57895,7.657894 -12.394738,10.578947 z"
         id="path23"
         style="stroke-width:0.789474;fill:#999999" /><path
         data-name="original"
         fill="#007acc"
         d="m 110.0873,17.467471 -1.69737,5.721437 11.44287,3.394756 3.39475,-11.442876 -11.44287,-3.394755 z m 9.35691,2.277913 a 1.4857706,1.4857706 0 0 1 0.59367,0.624321 1.9651131,1.9651131 0 0 1 0.166,0.44765 c -0.004,0.01478 -0.59781,0.202119 -0.95439,0.299518 -0.0132,0.004 -0.043,-0.05656 -0.07,-0.143284 A 0.67699959,0.67699959 0 0 0 118.738,20.491026 c -0.33988,-0.126737 -0.61728,-0.01082 -0.70428,0.289058 a 0.43732837,0.43732837 0 0 0 -0.0141,0.228884 c 0.029,0.180924 0.14291,0.317292 0.53079,0.641526 0.71475,0.595503 0.99638,0.932039 1.11621,1.327143 0.13487,0.438412 0.0134,1.045805 -0.28115,1.434494 -0.32431,0.42171 -0.86874,0.611782 -1.53491,0.53068 a 3.6590444,3.6590444 0 0 1 -0.86879,-0.267653 2.1961905,2.1961905 0 0 1 -0.98436,-0.952377 c -0.0708,-0.14749 -0.18595,-0.511333 -0.16662,-0.529504 a 0.89184431,0.89184431 0 0 1 0.12506,-0.03562 l 0.49336,-0.10861 0.38514,-0.09291 0.0385,0.121965 a 1.6022642,1.6022642 0 0 0 0.31063,0.544338 c 0.30913,0.300869 0.81683,0.422604 1.12999,0.273485 a 0.51849193,0.51849193 0 0 0 0.25113,-0.614728 c -0.0538,-0.154406 -0.20511,-0.315823 -0.65056,-0.691001 -0.51496,-0.429657 -0.72274,-0.662613 -0.88083,-0.982419 a 1.5736183,1.5736183 0 0 1 -0.14426,-0.665298 2.3871636,2.3871636 0 0 1 0.19713,-0.738315 c 0.29098,-0.534178 0.83659,-0.805577 1.49595,-0.73845 a 3.023104,3.023104 0 0 1 0.86168,0.281534 z m -2.82817,-0.317129 -0.13902,0.468711 -1.48574,-0.440775 -1.25553,4.232032 -1.05365,-0.312588 1.25579,-4.232947 -1.48941,-0.441861 0.13575,-0.457737 a 4.6969831,4.6969831 0 0 1 0.15133,-0.470037 c 0.01,-0.0061 0.91787,0.263333 2.01638,0.589228 l 1.9984,0.592866 z"
         id="path220"
         style="fill:#ffffff;stroke-width:0.0954863" /><g
         id="g295"
         transform="matrix(0.18196991,0,0,0.18196991,20.740585,3.0446721)"
         style="fill:#ffffff"><path
           fill="#069cec"
           d="m 91.676876,70.152991 15.797864,-6.78068 c 6.84802,-2.93924 10.02146,-10.885364 7.08218,-17.733371 L 99.103962,9.6360614 C 98.521896,8.2800346 97.794692,7.1468897 96.864055,6.1010621 l 0.06776,-0.029098 c 0.881421,-0.3783182 2.238385,0.7254022 2.897516,1.3257167 0.630019,0.5325144 1.812059,0.667507 2.868089,0.6959973 l 15.9477,37.1555129 c 3.5213,8.204049 -0.27135,17.700602 -8.47539,21.221899 l -18.713358,8.032053 c 0.06719,-1.152943 0.15358,-2.635285 0.220466,-4.350147 z M 68.166254,3.9658594 c 5.211158,-2.0761179 8.021058,-1.5157271 9.911138,0.08181 L 45.396812,18.074654 c -6.848005,2.939264 -10.021438,10.885364 -7.082173,17.73337 l 15.452963,36.002875 c 2.939265,6.848007 10.885364,10.021438 17.733371,7.082181 l 2.576468,-1.105889 c 0.04891,0.86223 0.243331,2.063472 0.534345,2.741497 0.174583,0.406816 0.455721,0.687615 0.765936,1.036226 l -3.457907,1.484175 C 63.715781,86.570416 54.219221,82.77777 50.697924,74.573724 L 34.197301,36.129973 C 30.676004,27.925928 34.468644,18.429369 42.67269,14.908072 Z"
           id="path280"
           style="fill:#ffffff;stroke-width:0.737836" /><path
           fill="#069cec"
           d="m 106.30169,61.948772 -14.509628,6.227753 c 0.258556,-5.570895 0.506597,-12.662839 0.774446,-18.960356 l 6.716675,4.985807 c 1.521667,1.113322 3.652937,0.840895 4.766257,-0.680766 1.11333,-1.521664 0.8409,-3.652932 -0.68081,-4.76625 L 92.852597,40.903486 c 0.181766,-4.253245 0.286742,-7.188846 0.276838,-7.586061 0.05729,-1.550154 -0.369947,-3.293808 -0.29346,-5.173374 0.346168,-4.805565 0.679071,-16.189455 1.753086,-18.7380543 0.377401,-0.8043286 0.580504,-1.4535531 0.870912,-1.8993714 0.90154,0.9780248 1.599669,2.0433565 2.152602,3.3315947 l 15.045555,35.053648 c 2.67736,6.237781 -0.1865,13.40866 -6.35648,16.056905 z m -6.621157,-25.340898 -6.034381,2.590047 6.29996,4.763203 2.440878,-1.047662 c 1.76285,-0.756642 2.50775,-2.762517 1.78021,-4.457568 -0.75664,-1.762852 -2.72382,-2.604662 -4.486667,-1.84802 z M 55.162039,70.570048 40.116497,35.516396 C 37.43915,29.278608 40.302978,22.107738 46.540764,19.430389 L 79.356948,5.3452011 c 0.523523,0.6585178 0.979246,1.3461368 1.396266,2.1306592 0.601231,1.0266295 0.525967,5.1538707 0.497171,5.6479887 -0.211173,3.623525 -0.798225,10.860976 -1.212804,14.571806 -0.05759,0.988235 -0.550795,2.645195 -0.560393,2.809901 0,0 -0.0387,0.09691 -0.0483,0.261609 l -2.597507,-1.936241 -0.887056,7.847976 2.597506,1.93624 c -0.260388,2.199378 -0.539973,4.728167 -0.926062,7.38296 l -20.272807,8.701387 c -1.762852,0.756642 -2.507759,2.762518 -1.780219,4.457568 0.756643,1.762853 2.762517,2.50776 4.457569,1.780219 L 76.631811,53.807375 C 75.49366,63.128102 74.394209,72.35193 74.037529,75.636444 l -2.847673,1.222301 C 65.078061,79.642564 57.839387,76.807831 55.162039,70.570048 Z M 66.470457,21.15376 c -1.521661,-1.113323 -3.652931,-0.840894 -4.766255,0.680766 -1.113324,1.521662 -0.840894,3.652932 0.680766,4.766256 l 3.925361,2.972164 0.887057,-7.847974 z m 6.514358,24.904986 2.999263,-25.375191 c 0.24119,-1.869965 -1.116072,-3.535609 -2.986038,-3.7768 -1.869966,-0.241191 -3.53561,1.116071 -3.776801,2.986037 l -3.491243,29.279829 z m -2.34319,20.356314 0.983655,-8.371194 -7.254818,3.113871 -0.559477,4.495659 c -0.24119,1.869966 1.116072,3.535609 2.986037,3.776803 1.869967,0.241186 3.603411,-1.145178 3.844603,-3.015141 z"
           id="path282"
           style="fill:#ffffff;stroke-width:0.737836" /><path
           fill="#069cec"
           d="m 64.008994,2.1370366 c -0.232825,-0.5424103 0.202797,-1.21114292 1.326025,-2.33559195 1.123227,-1.12444855 2.992277,-2.56901535 5.975566,-3.84948655 8.746463,-3.7541103 15.896918,-2.8085468 20.30527,-2.4524754 2.761295,0.2600836 3.87645,2.1099364 6.192226,2.6415335 1.598762,0.3575963 3.138699,-0.5442484 4.339639,-1.3005858 l 0.13561,-0.058172 c 0,0 4.37926,0.288268 4.40837,0.35607 0.2907,0.1161013 0.35012,2.4993818 0.24515,5.43498103 -0.14367,3.03250567 -0.48147,5.42569157 -0.81087,5.40649307 -0.16471,-0.0096 -4.76687,-0.4430725 -4.76687,-0.4430725 0,0 -0.45573,-0.6876164 -1.09535,-1.0554231 C 99.081413,3.7843937 97.269345,3.116889 95.845506,3.7280233 93.947048,4.542865 92.679226,7.0140662 91.934628,9.5818588 91.006124,12.469466 90.518723,24.80289 90.346861,29.453348 c 0.0099,0.397215 0.378932,2.005267 0.36965,2.731889 -0.01859,1.45325 -1.788256,43.162183 -1.970325,46.853518 -0.105893,1.249839 -0.987014,2.190079 -2.343055,2.77211 -2.712083,1.164065 -8.292875,0.508298 -9.553844,-2.242484 -0.174586,-0.406824 -0.398131,-1.675856 -0.427536,-2.305575 -0.02971,-1.191636 5.478053,-45.78971 5.545551,-46.380732 0.0096,-0.164704 0.406201,-1.298446 0.531596,-2.315782 0.317674,-3.74953 1.12672,-12.527537 1.366994,-16.08326 0.0288,-0.494117 -0.128448,-4.6018568 -0.66188,-5.6575853 C 80.663151,2.2151846 77.143684,-2.6173471 65.404029,2.020021 64.997217,2.194631 64.096288,2.3404447 64.008982,2.1370365 Z"
           id="path284"
           style="fill:#ffffff;stroke-width:0.737836" /></g><g
         id="g276"
         transform="matrix(0.09858486,0.02103452,-0.02103452,0.09858486,86.951087,1.235694)"
         style="fill:#ffffff"><path
           fill="#4285f4"
           d="m 25.1,17.7 13.4,0.1 C 33.6,22.7 30.7,29 29.7,36.1 L 24.6,36 c -5.5,-0.2 -9.8,-4.3 -9.7,-9.3 0,-5.1 4.5,-9 10.2,-9 z m 40.2,77.2 c 0.9,2.2 6.9,14.4 6.9,14.4 H 55.1 c 0,0 5.5,-11.5 6.7,-14.4 1,-2.2 2.5,-2.3 3.5,0 z"
           id="path258"
           style="fill:#ffffff" /><path
           fill="#4285f4"
           d="m 114.9,47.9 c -1.1,4.3 -5.5,7.5 -10.9,7.5 h -5 c -0.3,0.1 -0.5,0.3 -0.4,0.6 v 53.3 H 89.5 L 72,73.1 c 1.8,-2 2.9,-4.7 2.9,-7.6 0,-4.8 -2.8,-9.1 -7,-10.8 v -4.9 c 0,-2.1 -1.8,-3.6 -3.9,-3.6 h -0.2 c -2.1,0 -3.9,1.8 -3.9,3.9 v 4.6 c -4.6,1.5 -8,5.8 -8,11 0,3 1.2,5.8 3.1,7.8 L 38,109.4 H 23.1 c -5.7,0 -10.2,-4.6 -10.2,-10.3 V 29.7 c 0,0 0,-0.6 0.1,0 0.8,4.8 5,8.5 10.1,8.6 H 100 c -0.1,0 14.6,-1.3 14.9,9.6 z"
           id="path260"
           style="fill:#ffffff" /><path
           fill="#4285f4"
           d="m 63.3,59.8 c 3.1,0 5.7,2.6 5.6,5.8 0,3.1 -2.6,5.7 -5.8,5.6 -3.1,0 -5.6,-2.6 -5.6,-5.7 0,-1.5 0.6,-2.9 1.7,-4 1.2,-1.1 2.6,-1.7 4.1,-1.7 z m 2.3,-3.3 v -6 c 0,-0.7 -0.3,-1.3 -0.9,-1.6 -0.9,-0.5 -2,-0.2 -2.5,0.7 -0.2,0.3 -0.3,0.6 -0.2,1 v 5.8 c -5,0.8 -8.5,5.5 -7.7,10.6 v 0.1 c 0.4,2.4 1.7,4.6 3.7,6 l -21.3,45.7 c -0.8,1.6 -0.7,3.6 0.4,5.1 1.6,2.3 4.7,2.9 7,1.3 0.8,-0.5 1.4,-1.3 1.8,-2.1 L 60,92.5 c 0.9,-2 3.3,-2.9 5.4,-1.9 0.8,0.4 1.5,1.1 1.9,1.9 l 14.5,30.3 c 1.2,2.5 4.2,3.5 6.7,2.3 2.5,-1.2 3.5,-4.2 2.3,-6.7 L 69,72.9 c 4,-3.2 4.7,-9.1 1.5,-13.1 -1.2,-1.6 -2.9,-2.7 -4.9,-3.3 m 14,-43.6 H 79.5 L 84.8,3.7 C 85.1,3.2 84.9,2.6 84.5,2.2 84,2 83.5,2.1 83.2,2.5 L 77.6,12 C 68.9,8.1 58.9,8.1 50.1,12 L 44.7,2.6 C 44.5,2.3 44.1,2 43.7,2 c -0.4,0 -0.8,0.2 -1,0.6 -0.2,0.4 -0.2,0.8 0,1.1 l 5.4,9.2 C 39.3,17.8 33.5,26.2 32.1,36 H 95.9 C 94.4,26.2 88.4,17.8 79.6,12.9 Z M 51.2,28 50.8,28.4 c -0.5,0.5 -1.2,0.8 -1.9,0.8 H 49 c -1.5,0 -2.7,-1.2 -2.7,-2.6 v -0.1 c 0,-0.7 0.3,-1.4 0.8,-1.9 0.9,-1.1 2.6,-1.3 3.7,-0.4 1.3,0.9 1.4,2.6 0.4,3.8 z m 27.4,1 c -1.5,0.1 -2.7,-1.1 -2.7,-2.6 v -0.1 c 0,-0.7 0.3,-1.4 0.8,-1.9 1,-1 2.7,-1 3.8,0 0.5,0.5 0.8,1.2 0.8,1.9 0,1.6 -1.2,2.7 -2.7,2.7 z m 27.1,29 h -4.2 c -0.2,0.1 -0.4,0.3 -0.4,0.6 v 66.5 c 0,0.3 0.2,0.5 0.5,0.5 h 4.4 c 5.1,0 9.2,-4.2 9.2,-9.2 0,0 -0.1,-61.1 0,-63.4 0.1,-2.4 -0.5,-0.7 -0.7,-0.2 -1.5,3.2 -4.8,5.3 -8.6,5.3 h -0.2 z"
           id="path262"
           style="fill:#ffffff" /><circle
           fill="#4285f4"
           cx="63.299999"
           cy="65.5"
           r="3.2"
           id="circle264"
           style="fill:#ffffff" /></g><path
         fill="#f0db4f"
         d="m 107.76083,38.816779 4.41762,11.86114 11.86114,-4.417625 -4.41763,-11.86114 z m 10.03825,7.77021 c -0.0426,0.420944 -0.28974,0.779129 -0.63496,1.036179 -0.54416,0.358263 -1.14232,0.492337 -1.66036,0.395914 -0.34808,-0.06831 -0.66902,-0.253481 -0.93406,-0.505831 l 0.69731,-0.889652 c 0.009,4.88e-4 0.0488,0.03445 0.10111,0.07807 0.18708,0.150099 0.33733,0.249736 0.56833,0.272939 0.21625,-0.006 0.65305,-0.121018 0.68995,-0.519211 0.0354,-0.208749 -0.20182,-0.749049 -0.42931,-1.359849 -0.35757,-0.959769 -0.70878,-1.917366 -1.06219,-2.866258 l 1.11106,-0.413809 c 0.38875,1.043779 0.76255,2.03024 1.13628,3.050874 0.23536,0.623324 0.49636,1.159944 0.41714,1.720526 z m 4.49223,-2.030545 c 0.10582,1.464882 -2.03143,2.309731 -3.21695,1.757414 -0.25833,-0.137721 -0.41226,-0.202595 -0.60903,-0.399331 0.3593,-0.433338 0.3593,-0.433338 0.70836,-0.856489 0.38004,0.281477 0.6796,0.402546 1.11277,0.336405 0.57024,-0.136532 1.04918,-0.52831 0.71035,-1.061771 -0.30269,-0.42601 -1.33592,-0.172255 -2.19836,-0.427176 -0.8554,-0.204704 -1.43165,-1.261635 -1.10697,-2.1091 0.0995,-0.305788 0.3535,-0.600929 0.65732,-0.810465 l 0.33309,-0.175602 c 0.66686,-0.263819 1.15293,-0.242794 1.58943,-0.01336 0.11812,0.05498 0.22311,0.122637 0.42972,0.277026 -0.27297,0.361419 -0.27264,0.358814 -0.66171,0.881684 -0.19736,-0.195111 -0.4342,-0.275463 -0.65022,-0.268265 -0.33178,0.0207 -0.67115,0.258931 -0.63182,0.60302 0.009,0.107158 0.0483,0.195399 0.15108,0.339741 0.22338,0.230474 0.67335,0.199247 1.09921,0.230919 1.20483,0.03469 1.72782,0.358226 2.01654,0.867671 0.25742,0.435307 0.26619,0.776615 0.26718,0.827681 z"
         id="path302"
         style="fill:#ffffff;stroke-width:0.101256" /><path
         d="m 6.2804959,75.709641 5.0998751,0.718042 -5.8062237,4.298771 z M 4.7835988,86.341311 16.912161,77.206537 11.646163,76.465105 5.5355563,81.000551 Z M 15.415263,87.838208 10.867309,81.996897 5.0576967,86.37991 Z"
         id="path360"
         style="fill:#ffffff;stroke-width:0.0838789" /><g
         id="g394"
         transform="matrix(0.12843717,-0.0236103,0.0236103,0.12843717,99.452779,94.682543)"
         style="fill:#ffffff"><path
           d="m 66.332,70.032 c 0.24,-4.242 2.327,-7.987 5.485,-10.634 3.094,-2.602 7.248,-4.193 11.809,-4.193 4.537,0 8.69,1.59 11.78,4.193 3.163,2.647 5.237,6.392 5.485,10.634 0.24,4.35 -1.523,8.41 -4.605,11.417 -3.158,3.05 -7.627,4.977 -12.66,4.977 -5.037,0 -9.526,-1.915 -12.664,-4.977 -3.094,-3.006 -4.853,-7.044 -4.606,-11.397 z m 0,0"
           fill="#235785"
           id="path382"
           style="fill:#ffffff" /><path
           d="m 39.245,79.002 c 0.028,1.66 0.564,4.89 1.36,7.404 1.682,5.336 4.537,10.273 8.49,14.599 4.062,4.465 9.074,8.055 14.85,10.61 6.073,2.67 12.665,4.037 19.505,4.037 6.84,-0.009 13.432,-1.4 19.504,-4.102 5.776,-2.582 10.79,-6.168 14.85,-10.657 3.974,-4.374 6.82,-9.307 8.491,-14.647 a 37,37 0 0 0 1.595,-8.163 c 0.208,-2.69 0.12,-5.405 -0.263,-8.12 A 37.535,37.535 0 0 0 122.21,55.249 c -2.574,-4.15 -5.916,-7.76 -9.89,-10.813 l 0.012,-0.004 -39.955,-30.506 c -0.036,-0.028 -0.068,-0.056 -0.104,-0.08 -2.619,-2.002 -7.044,-1.994 -9.91,0.008 -2.914,2.031 -3.25,5.385 -0.656,7.496 l -0.012,0.008 16.682,13.484 -50.789,0.051 H 27.52 c -4.197,0.004 -8.239,2.739 -9.03,6.213 -0.82,3.521 2.035,6.46 6.412,6.46 L 24.894,47.582 50.63,47.534 4.58,82.524 C 4.524,82.568 4.46,82.612 4.404,82.656 0.069,85.95 -1.33,91.446 1.4,94.9 c 2.778,3.522 8.666,3.546 13.047,0.02 L 39.505,74.51 c 0,0 -0.368,2.758 -0.336,4.397 z m 64.56,9.219 c -5.168,5.228 -12.416,8.21 -20.227,8.21 C 75.747,96.443 68.499,93.513 63.33,88.289 60.804,85.73 58.953,82.816 57.802,79.698 a 22.202,22.202 0 0 1 -1.271,-9.602 22.446,22.446 0 0 1 2.778,-9.039 c 1.507,-2.714 3.59,-5.18 6.14,-7.267 5.033,-4.058 11.42,-6.28 18.1,-6.28 6.709,-0.008 13.097,2.174 18.13,6.236 2.55,2.075 4.625,4.529 6.14,7.243 a 22.302,22.302 0 0 1 2.774,9.043 22.313,22.313 0 0 1 -1.271,9.598 c -1.147,3.142 -3.002,6.056 -5.533,8.615 z m 0,0"
           fill="#e87500"
           id="path384"
           style="fill:#ffffff" /></g><g
         id="g440"
         transform="matrix(0.10645003,0,0,0.10645003,87.131564,111.84723)"
         style="fill:#ffffff"><path
           d="m 52.203,9.61 c -5.3,1.18 -10.543,2.816 -15.457,5.292 0.113,4.34 0.395,8.496 0.961,12.72 -1.906,1.222 -3.914,2.273 -5.695,3.702 -1.813,1.395 -3.66,2.727 -5.301,4.36 A 101.543,101.543 0 0 0 16.395,29.68 C 12.543,33.824 8.94,38.297 6,43.305 c 2.313,3.629 4.793,7.273 7.086,10.117 v 30.723 c 0.059,0 0.113,0.003 0.168,0.007 L 32.09,85.97 a 2.027,2.027 0 0 1 1.828,1.875 l 0.582,8.316 16.426,1.172 1.133,-7.672 a 2.03,2.03 0 0 1 2.007,-1.734 h 19.868 a 2.03,2.03 0 0 1 2.007,1.734 l 1.133,7.672 16.43,-1.172 0.578,-8.316 A 2.027,2.027 0 0 1 95.91,85.97 l 18.828,-1.817 c 0.055,-0.004 0.11,-0.007 0.168,-0.007 V 81.69 h 0.008 V 53.42 c 2.652,-3.335 5.16,-7.019 7.086,-10.116 -2.941,-5.008 -6.543,-9.48 -10.395,-13.625 a 101.543,101.543 0 0 0 -10.316,6.004 c -1.64,-1.633 -3.488,-2.965 -5.3,-4.36 -1.782,-1.43 -3.79,-2.48 -5.696,-3.703 0.566,-4.223 0.848,-8.379 0.96,-12.719 -4.913,-2.476 -10.155,-4.113 -15.456,-5.293 -2.117,3.559 -4.055,7.41 -5.738,11.176 -2,-0.332 -4.008,-0.457 -6.02,-0.48 V 20.3 c -0.016,0 -0.027,0.004 -0.039,0.004 -0.012,0 -0.023,-0.004 -0.04,-0.004 v 0.004 c -2.01,0.023 -4.019,0.148 -6.019,0.48 -1.683,-3.765 -3.62,-7.617 -5.738,-11.176 z M 37.301,54.55 c 6.27,0 11.351,5.079 11.351,11.345 0,6.27 -5.082,11.351 -11.351,11.351 -6.266,0 -11.348,-5.082 -11.348,-11.351 0,-6.266 5.082,-11.344 11.348,-11.344 z m 53.398,0 c 6.266,0 11.348,5.079 11.348,11.345 0,6.27 -5.082,11.351 -11.348,11.351 -6.27,0 -11.351,-5.082 -11.351,-11.351 0,-6.266 5.082,-11.344 11.351,-11.344 z M 64,61.189 c 2.016,0 3.656,1.488 3.656,3.32 v 10.449 c 0,1.832 -1.64,3.32 -3.656,3.32 -2.02,0 -3.652,-1.488 -3.652,-3.32 v -10.45 c 0,-1.831 1.632,-3.32 3.652,-3.32 z m 0,0"
           id="path425"
           style="fill:#ffffff" /><path
           d="m 98.008,89.84 -0.582,8.36 a 2.024,2.024 0 0 1 -1.88,1.878 l -20.062,1.434 c -0.046,0.004 -0.097,0.004 -0.144,0.004 -0.996,0 -1.86,-0.73 -2.004,-1.73 L 72.184,91.98 H 55.816 l -1.152,7.805 a 2.026,2.026 0 0 1 -2.148,1.727 l -20.063,-1.434 a 2.024,2.024 0 0 1 -1.879,-1.879 l -0.582,-8.36 -16.937,-1.632 c 0.008,1.82 0.03,3.816 0.03,4.211 0,17.887 22.692,26.484 50.88,26.582 h 0.07 c 28.188,-0.098 50.871,-8.695 50.871,-26.582 0,-0.402 0.024,-2.39 0.031,-4.211 z m 0,0"
           fill="#010102"
           id="path427"
           style="fill:#ffffff" /><path
           d="m 45.922,66.566 a 7.531,7.531 0 0 1 -7.535,7.532 7.534,7.534 0 0 1 -7.535,-7.532 7.534,7.534 0 0 1 7.535,-7.53 7.531,7.531 0 0 1 7.535,7.53 m 36.156,0 a 7.53,7.53 0 0 0 7.531,7.532 7.5315,7.5315 0 1 0 0,-15.063 7.53,7.53 0 0 0 -7.53,7.531"
           id="path429"
           style="fill:#ffffff" /></g><path
         fill="#ffd845"
         d="m 116.67863,78.392729 3.19294,-0.489552 c 0.88882,-0.136278 1.47366,-0.995678 1.33681,-1.888219 l -0.4667,-3.043905 c -0.13283,-0.86637 -0.95884,-1.405897 -1.84857,-1.417419 -0.56307,-0.0073 -1.13677,0.03812 -1.683,0.12456 -0.54602,0.08625 -1.04499,0.210432 -1.49165,0.362188 -1.31627,0.446248 -1.46928,0.981891 -1.32783,1.904436 l 0.18161,1.18447 3.17552,-0.486881 0.0671,0.438003 -4.40455,0.675322 c -0.92901,0.142438 -1.65684,0.82651 -1.74831,1.927998 -0.10687,1.26266 -0.006,2.009155 0.49578,3.233558 0.37231,0.91147 1.01591,1.487145 1.94502,1.344691 l 1.08909,-0.166984 -0.21906,-1.428767 c -0.1618,-1.055258 0.62148,-2.107256 1.70575,-2.273499 z m -0.85788,-4.251721 c -0.33135,0.0508 -0.64147,-0.179481 -0.69294,-0.51521 -0.0517,-0.337153 0.17469,-0.652276 0.50615,-0.703096 0.33014,-0.05062 0.64196,0.181984 0.69366,0.519137 0.0514,0.335745 -0.17683,0.648568 -0.50687,0.699169 z m 8.62465,1.582737 c -0.37157,-0.889839 -0.91695,-1.519353 -1.84727,-1.376713 l -1.16968,0.179339 0.21794,1.421431 c 0.16873,1.100483 -0.66044,2.120739 -1.72446,2.283877 l -3.19293,0.489552 c -0.87469,0.13411 -1.44615,1.042789 -1.31184,1.918796 l 0.46674,3.044122 c 0.1328,0.866152 0.94952,1.262526 1.83265,1.381532 1.05762,0.142351 2.02421,0.04918 3.18111,-0.487738 0.76897,-0.356508 1.4787,-0.945232 1.33729,-1.867558 l -0.1868,-1.218307 -3.17553,0.486884 -0.0671,-0.438004 4.78321,-0.733378 c 0.92901,-0.142438 1.17838,-0.828018 1.35248,-1.850386 0.18011,-1.052541 0.0205,-1.997961 -0.49576,-3.233449 z m -3.66054,6.793287 c 0.33146,-0.05082 0.64158,0.179464 0.69308,0.515414 0.0516,0.336824 -0.17471,0.652054 -0.50629,0.702892 -0.33014,0.05062 -0.64184,-0.182002 -0.6935,-0.518935 -0.0515,-0.335949 0.17656,-0.648752 0.50671,-0.699371 z"
         id="path442"
         style="fill:#ffffff;stroke-width:0.11078" /><path
         d="m 57.434785,116.75474 c -0.15171,0 -0.30342,-0.0828 -0.37238,-0.22067 l -0.11034,-0.22068 -0.0414,0.24826 -0.0138,0.11034 c 0,0.45513 0.3586,0.81373 0.81374,0.81373 0.45514,0 0.81373,-0.3586 0.81373,-0.81373 0,-0.42756 -0.3448,-0.78615 -0.77236,-0.81373 l -0.23446,-0.0138 0.19309,0.15171 c 0.0965,0.0828 0.1655,0.20688 0.1655,0.33101 -0.0138,0.23446 -0.20688,0.42755 -0.44135,0.42755 z m -0.069,-1.84814 c 0.6896,0 1.28266,0.46893 1.46196,1.08958 0.11033,-0.30343 0.28963,-0.56548 0.5241,-0.77236 -2.24811,-0.13792 -3.21355,-2.13777 -3.21355,-2.13777 l -0.0551,2.52395 c 0.26205,-0.41376 0.73098,-0.7034 1.28266,-0.7034 z m 3.55835,2.89633 c 0.51031,0 0.92407,-0.41376 0.92407,-0.92406 0,-0.49652 -0.38618,-0.91028 -0.8827,-0.92407 l -0.20688,-0.0138 0.16551,0.12413 c 0.12413,0.0965 0.19309,0.24825 0.19309,0.41376 0,0.28963 -0.23446,0.5241 -0.5241,0.5241 -0.19309,0 -0.37239,-0.11034 -0.46893,-0.27584 l -0.0965,-0.1793 -0.0276,0.20688 -0.0138,0.12413 c 0.0138,0.49651 0.42755,0.92407 0.93786,0.92407 z m 8.86829,6.50985 c -0.0551,-0.19308 -0.11034,-0.38617 -0.16551,-0.56547 -0.34479,-1.24128 -0.60684,-2.20673 -1.69642,-2.11018 -0.1655,0.0138 -0.30342,0.069 -0.42755,0.15171 l -1.08957,-0.6896 h -0.0414 l -0.0828,-0.26205 -0.1655,0.11033 c -0.3448,-0.22067 -0.73098,-0.41376 -1.11716,-0.59306 1.24129,-1.47574 1.9171,-4.08244 1.44817,-8.34419 -0.0414,-0.37238 -0.24826,-0.42755 -0.38618,-0.0276 -0.11034,0.3448 -0.84132,2.52395 -4.60654,3.1308 0.49651,0.31722 0.82751,0.8689 0.82751,1.50333 0,0.99303 -0.79993,1.79297 -1.79296,1.79297 -0.84131,0 -1.5585,-0.59306 -1.7378,-1.37921 -0.23446,0.55169 -0.77236,0.93786 -1.40679,0.93786 -0.63443,0 -1.17232,-0.38617 -1.40678,-0.93786 -0.0138,0.0276 -0.0276,0.0552 -0.0414,0.069 -0.0138,-0.0276 -0.0414,-0.0552 -0.0551,-0.0965 -0.74477,-1.02061 -1.93088,-1.43437 -2.66186,-0.91028 -0.73098,0.53789 -0.71719,1.79297 0.0276,2.81358 0.62065,0.85511 1.54471,1.28267 2.2619,1.08958 2.08261,1.54471 5.93058,2.88254 8.5097,1.24128 0.5103,0.28963 1.08957,0.56547 1.62746,0.75856 v 0.0138 l 0.0551,0.16551 0.22067,-0.0828 0.0276,0.0276 1.2137,0.44135 c 0.0138,0.38617 0.24826,0.81373 0.74477,1.00682 0.92407,0.35859 1.80676,0.79994 1.80676,0.81373 l 0.13792,0.069 z m -16.68839,-7.18566 c 0,-0.44134 0.30343,-0.79993 0.66203,-0.79993 0.37238,0 0.66201,0.35859 0.66201,0.79993 0,0.44135 -0.30342,0.79994 -0.66201,0.79994 -0.37239,0 -0.66203,-0.35859 -0.66203,-0.79994 z m 5.0479,2.56533 c 2.52395,0.5103 3.82039,0.0414 4.56516,-0.55169 -0.19308,-0.26204 -0.53788,-0.53789 -0.53788,-0.53789 0,0 0.88269,0.24826 1.19991,0.64823 0.13791,0.1793 0.1793,0.33101 0.1655,0.48272 -0.44135,-0.15171 -0.77236,-0.24826 -0.84131,-0.27584 -0.27584,-0.12413 -0.53789,-0.0414 -0.60685,0.16551 -0.0551,0.15171 -0.0138,0.331 0.12413,0.46893 -0.86891,0.39997 -2.28948,0.23446 -4.06866,-0.39997 z"
         fill="#716955"
         id="path459"
         style="fill:#ffffff;stroke-width:0.13792" /><path
         d="m 12.839421,21.917948 c -0.02184,0.01913 -0.09657,0.187671 -0.166074,0.374562 -0.174382,0.469313 -0.177205,0.470132 -0.590826,0.175161 -0.269081,-0.191799 -0.331445,-0.224387 -0.403367,-0.209906 -0.0468,0.0093 -0.102813,0.03671 -0.124667,0.06085 -0.02173,0.02411 -0.06429,0.190753 -0.09448,0.370297 -0.06907,0.411264 -0.07358,0.424999 -0.150082,0.455668 -0.04716,0.01872 -0.151506,-0.01544 -0.408795,-0.133855 -0.189994,-0.08759 -0.372605,-0.153865 -0.405743,-0.147442 -0.137522,0.02665 -0.161708,0.109317 -0.150916,0.515667 0.01377,0.516645 0.01631,0.514391 -0.4746101,0.396861 -0.198156,-0.04729 -0.384037,-0.08152 -0.413133,-0.07588 -0.02911,0.0056 -0.07821,0.04764 -0.109039,0.09329 -0.0559,0.08299 -0.056,0.08329 0.03711,0.462301 l 0.09325,0.379398 -0.06493,0.05279 c -0.05757,0.04676 -0.102585,0.05115 -0.39979,0.03904 -0.387919,-0.01565 -0.465744,0.0019 -0.521306,0.117551 l -0.04062,0.08449 0.134943,0.301599 c 0.07408,0.165832 0.145541,0.325537 0.158788,0.354784 0.01338,0.02909 0.0102,0.08047 -0.0066,0.113923 -0.02777,0.05507 -0.06635,0.06701 -0.410648,0.128331 -0.582782,0.103481 -0.6061323,0.159722 -0.2644921,0.637184 0.1085731,0.151565 0.2003531,0.290546 0.2038681,0.308682 0.01856,0.09577 -0.05102,0.145402 -0.3685322,0.262449 -0.1776589,0.06544 -0.3323554,0.120868 -0.3438358,0.123093 -0.011447,0.0022 -0.041101,0.03395 -0.065693,0.07041 -0.080466,0.11916 -0.033967,0.207349 0.2543138,0.483018 0.3590982,0.343307 0.3588531,0.344844 -0.07241,0.613358 -0.4904601,0.305304 -0.4914762,0.357351 -0.014026,0.661744 0.4446881,0.283395 0.4440663,0.278101 0.070679,0.627862 -0.2829317,0.26481 -0.2869507,0.270598 -0.2739077,0.381923 0.015994,0.135393 0.018766,0.137293 0.4489578,0.297731 0.4253568,0.158533 0.4267218,0.165579 0.1216113,0.591186 -0.3278858,0.457503 -0.3047444,0.510555 0.2641535,0.607827 0.497057,0.08493 0.498114,0.0869 0.292761,0.539602 -0.116369,0.256624 -0.149178,0.360457 -0.135674,0.430132 0.02526,0.130347 0.09959,0.150463 0.518152,0.140005 0.352616,-0.0086 0.435233,0.01042 0.45349,0.104615 0.0037,0.01931 -0.02936,0.183849 -0.07362,0.365442 -0.137673,0.565086 -0.102167,0.603014 0.461761,0.493714 0.5251694,-0.101787 0.5081024,-0.115124 0.4867754,0.380428 -0.01614,0.373526 -0.0042,0.442149 0.08796,0.504297 0.0706,0.04778 0.180725,0.01953 0.51307,-0.131396 0.253852,-0.115136 0.299707,-0.128628 0.367818,-0.107573 l 0.07773,0.02406 0.05522,0.386635 c 0.05526,0.386492 0.05547,0.386723 0.138317,0.442821 0.04565,0.03082 0.107686,0.05129 0.137695,0.04547 0.03001,-0.0058 0.189718,-0.106627 0.354988,-0.224083 0.410177,-0.291368 0.406982,-0.292509 0.586667,0.190355 0.142437,0.382726 0.195011,0.448754 0.335407,0.421543 0.0348,-0.0067 0.176723,-0.131723 0.315483,-0.277752 0.243641,-0.256519 0.310855,-0.302308 0.395424,-0.269015 0.02183,0.0085 0.129349,0.159587 0.238898,0.335737 0.161081,0.259032 0.214331,0.324252 0.279341,0.341165 0.123773,0.03233 0.185398,-0.02483 0.395382,-0.366344 0.253511,-0.412356 0.267019,-0.413215 0.611825,-0.03885 0.380778,0.413293 0.455601,0.397707 0.660067,-0.137813 0.176187,-0.461405 0.173236,-0.460563 0.589308,-0.166209 0.276256,0.195283 0.332595,0.224029 0.410097,0.209008 0.04947,-0.0096 0.104968,-0.03958 0.12314,-0.06665 0.01828,-0.0271 0.06096,-0.209334 0.09481,-0.404882 0.03382,-0.19568 0.07471,-0.368226 0.09096,-0.38356 0.06416,-0.06077 0.146322,-0.04271 0.467523,0.102978 0.189117,0.08586 0.363134,0.146224 0.400321,0.139016 0.138046,-0.02676 0.168897,-0.134402 0.151651,-0.530701 -0.01456,-0.337928 -0.01077,-0.371287 0.04746,-0.416556 0.05729,-0.04454 0.0975,-0.04109 0.421736,0.03645 0.197159,0.04707 0.382965,0.08092 0.412975,0.0751 0.03001,-0.0058 0.08065,-0.04907 0.112285,-0.09609 l 0.05776,-0.08538 -0.09087,-0.36348 c -0.08676,-0.347083 -0.08868,-0.366205 -0.04252,-0.427679 0.04746,-0.06321 0.05335,-0.06409 0.389367,-0.053 0.406854,0.01347 0.479983,0.0017 0.538996,-0.08565 0.05761,-0.08535 0.05383,-0.100866 -0.124047,-0.494595 -0.199453,-0.441666 -0.211009,-0.422369 0.316374,-0.524586 0.359471,-0.06967 0.398534,-0.08254 0.434552,-0.141898 0.06007,-0.09936 0.02314,-0.192662 -0.194216,-0.490741 -0.109651,-0.150137 -0.201807,-0.288233 -0.204874,-0.306863 -0.01595,-0.09804 0.05386,-0.146087 0.396693,-0.272238 0.209787,-0.07708 0.36395,-0.149198 0.388175,-0.181372 0.08116,-0.107925 0.02263,-0.216526 -0.262966,-0.487841 -0.35791,-0.340017 -0.357468,-0.344028 0.06101,-0.597474 0.501117,-0.303443 0.503665,-0.372709 0.02546,-0.678175 -0.442963,-0.282911 -0.442719,-0.280928 -0.08179,-0.611892 0.43637,-0.40001 0.423879,-0.468663 -0.122082,-0.676654 -0.469495,-0.178814 -0.468525,-0.175211 -0.16201,-0.604746 0.328722,-0.460914 0.308048,-0.508893 -0.261094,-0.608826 -0.502305,-0.08825 -0.504602,-0.09241 -0.296008,-0.537483 0.124217,-0.265051 0.151151,-0.35028 0.135725,-0.429871 -0.02696,-0.13909 -0.09534,-0.15819 -0.518436,-0.144959 -0.353489,0.01111 -0.435428,-0.0079 -0.454319,-0.105402 -0.0036,-0.01853 0.03015,-0.179805 0.07494,-0.358657 0.08768,-0.350162 0.08378,-0.482754 -0.01592,-0.543168 -0.05356,-0.0324 -0.115737,-0.02644 -0.441413,0.04223 -0.340729,0.07205 -0.385383,0.07563 -0.441976,0.0372 -0.06188,-0.04202 -0.06277,-0.04943 -0.04729,-0.402658 0.01899,-0.432832 0.01744,-0.442955 -0.07892,-0.503745 -0.0978,-0.06173 -0.149214,-0.05041 -0.511709,0.112583 -0.264099,0.118874 -0.309058,0.13206 -0.378476,0.110586 l -0.0788,-0.02439 -0.05431,-0.385593 -0.05414,-0.38549 -0.08523,-0.05754 c -0.0469,-0.03166 -0.108815,-0.05296 -0.137787,-0.04735 -0.02881,0.0056 -0.187446,0.107134 -0.352419,0.22548 -0.27546,0.197839 -0.306151,0.213399 -0.378148,0.191885 -0.07188,-0.02154 -0.08922,-0.0531 -0.210861,-0.382462 -0.140556,-0.381061 -0.195239,-0.449929 -0.334976,-0.422845 -0.03315,0.0064 -0.178323,0.136772 -0.322648,0.2897 -0.236968,0.251165 -0.270277,0.27698 -0.343539,0.266406 -0.06057,-0.0088 -0.101983,-0.04562 -0.163111,-0.145191 -0.04519,-0.07328 -0.131893,-0.2146 -0.192842,-0.313932 -0.123028,-0.200343 -0.177692,-0.239974 -0.299297,-0.216404 -0.06788,0.01316 -0.119846,0.07386 -0.295756,0.345275 -0.27646,0.426687 -0.277795,0.426809 -0.613281,0.05862 -0.134116,-0.147156 -0.269333,-0.27555 -0.300578,-0.285199 -0.07031,-0.02184 -0.145169,-0.0072 -0.197104,0.03847 m 0.559155,1.196003 c 0.343131,0.156193 0.280567,0.691829 -0.08921,0.763498 -0.358812,0.06954 -0.623305,-0.327701 -0.414614,-0.622797 0.117708,-0.166587 0.321777,-0.223603 0.503822,-0.140697 m -0.120865,1.406189 c 0.212235,0.03684 0.284648,-0.02403 0.651653,-0.54652 l 0.27574,-0.392703 0.147215,-0.0088 c 0.461726,-0.02749 1.433288,0.192239 2.018292,0.456426 0.537556,0.242923 1.297866,0.802511 1.656419,1.219162 l 0.0767,0.08924 -0.142883,0.620654 c -0.07869,0.341378 -0.136612,0.653689 -0.128748,0.694266 0.01813,0.09355 0.1081,0.229636 0.176723,0.267102 0.02894,0.01591 0.287862,0.08405 0.575328,0.151397 l 0.522506,0.122645 0.04263,0.118588 c 0.05527,0.154585 0.134404,0.545249 0.133469,0.660773 l -5.24e-4,0.09027 -0.274396,0.05318 c -0.318234,0.06168 -0.299216,0.02847 -0.240778,0.422208 0.04235,0.285428 0.0043,0.455127 -0.131623,0.586521 -0.221345,0.214427 -0.645605,0.265519 -0.861063,0.103798 -0.03308,-0.02486 -0.115429,-0.166073 -0.183081,-0.313926 -0.197556,-0.431881 -0.394308,-0.657736 -0.738468,-0.847845 -0.108706,-0.06002 -0.199294,-0.118142 -0.201444,-0.129233 -0.0021,-0.01097 0.0839,-0.117521 0.191342,-0.236499 0.391065,-0.434008 0.576478,-0.886912 0.528283,-1.290612 -0.09192,-0.769955 -0.834024,-1.360417 -1.778253,-1.415404 -0.223879,-0.01306 -0.315278,0.0029 -2.95445,0.514414 -1.497876,0.290316 -2.7253574,0.518039 -2.7276524,0.506199 -0.0054,-0.02806 0.2647974,-0.415627 0.4294934,-0.61569 0.452196,-0.549557 1.083785,-1.035464 1.771931,-1.362973 l 0.237952,-0.113399 0.425886,0.291914 c 0.234316,0.160497 0.460032,0.297615 0.501514,0.304873 m -4.0319694,3.190812 c 0.18482,0.07559 0.304316,0.332398 0.238939,0.513345 -0.101132,0.28007 -0.478513,0.36418 -0.675473,0.150548 -0.286358,-0.310293 0.05009,-0.822119 0.436533,-0.663895 m 9.6645204,-1.858945 c 0.479714,0.178457 0.271983,0.886409 -0.226677,0.772272 -0.33292,-0.07627 -0.423937,-0.493463 -0.153709,-0.704503 0.112762,-0.08806 0.256979,-0.113705 0.380424,-0.06772 m -8.087349,3.229393 0.310195,1.600439 -1.4148934,0.274233 -0.10332,-0.232617 c -0.203323,-0.45811 -0.345924,-0.945181 -0.396878,-1.356876 l -0.03587,-0.289256 0.444133,-0.312436 c 0.278687,-0.195892 0.4547144,-0.338177 0.4725214,-0.381836 0.07794,-0.190152 0.04401,-0.308664 -0.1776784,-0.621473 l -0.10355,-0.146041 0.6951854,-0.13474 0.31022,1.600568 m 3.776796,-2.320415 c 0.318242,0.02009 0.509415,0.149415 0.553385,0.374152 0.03224,0.165004 -0.02948,0.284459 -0.214622,0.415378 -0.131065,0.09282 -0.153596,0.09881 -1.057775,0.283266 l -0.923766,0.188211 -0.184205,-0.950398 0.829185,-0.160712 c 0.647693,-0.125535 0.866179,-0.158408 0.997792,-0.149927 m 0.132508,2.35726 c 0.158278,0.01264 0.361143,0.108704 0.478488,0.226618 0.123256,0.123946 0.215148,0.298374 0.466668,0.886447 0.2125,0.49708 0.317399,0.652742 0.561906,0.834413 0.302843,0.224922 0.242862,0.225582 1.491012,-0.01633 0.597716,-0.115848 1.088464,-0.201084 1.09074,-0.189342 0.0041,0.02101 -0.313255,0.587475 -0.330999,0.590914 -0.0052,0.001 -0.228846,-0.0023 -0.497208,-0.0075 -0.757792,-0.01436 -0.780482,0.009 -0.796338,0.821222 l -0.01028,0.521848 -0.08769,0.06654 c -0.146316,0.111212 -0.640272,0.377526 -0.901965,0.48646 -0.432458,0.179935 -0.916585,0.30626 -1.354483,0.353364 -0.746515,0.08012 -1.774328,-0.01635 -1.844139,-0.173257 -0.0148,-0.03328 -0.107481,-0.249249 -0.205688,-0.480125 -0.09832,-0.230853 -0.205399,-0.447147 -0.237883,-0.480653 -0.156036,-0.160371 -0.28493,-0.147167 -0.818171,0.08412 -0.201931,0.0876 -0.378648,0.161387 -0.39274,0.164118 -0.0265,0.0051 -0.505805,-0.37173 -0.511723,-0.402262 -0.0018,-0.0095 0.926047,-0.200876 2.062011,-0.425111 l 2.065395,-0.407646 -0.13484,-0.735644 c -0.09527,-0.519396 -0.146759,-0.74511 -0.174107,-0.767698 -0.03094,-0.02542 -0.165811,-0.0075 -0.648061,0.08594 l -0.608935,0.118023 -0.17265,-0.890781 0.702905,-0.136101 c 0.386504,-0.07478 0.750508,-0.13219 0.808787,-0.127646 m -2.537577,3.956043 c 0.367493,0.136579 0.311589,0.691909 -0.07718,0.766855 -0.398654,0.07699 -0.647131,-0.414331 -0.347659,-0.687356 0.09906,-0.09027 0.29673,-0.127236 0.424841,-0.07949 m 6.022659,-1.144559 c 0.184028,0.08685 0.285268,0.322147 0.217169,0.50511 -0.1788,0.48073 -0.900554,0.266056 -0.769292,-0.22874 0.06458,-0.243067 0.335189,-0.378638 0.552123,-0.27637"
         fill-rule="evenodd"
         id="path476"
         style="fill:#ffffff;stroke-width:0.132905" /><path
         fill="#179a33"
         d="m 21.212954,112.09483 c 0.02195,0.022 0.06586,0.0549 0.0988,0.0549 h 0.581788 c 0.03292,0 0.07684,-0.0329 0.0988,-0.0549 l 0.153681,-0.16466 c 0.02195,-0.022 0.03293,-0.0439 0.03293,-0.0658 l 0.164657,-0.55982 c 0.01098,-0.0549 0,-0.10975 -0.03292,-0.14271 l -0.120748,-0.0988 c -0.02195,-0.022 -0.06586,-0.0105 -0.0988,-0.0105 h -0.526904 l -0.02195,-0.0219 -0.01097,-0.0105 c -0.02195,0 -0.04391,-0.0105 -0.06586,0.0105 l -0.208566,0.13174 c -0.02195,0 -0.03293,0.0549 -0.04391,0.0768 l -0.175643,0.53788 c -0.02196,0.0549 -0.01097,0.12075 0.03292,0.16466 z m 0.08782,2.89798 -0.04391,0.0105 H 21.12514 l 0.790354,-2.31619 c 0.02196,-0.0768 -0.01097,-0.16465 -0.08781,-0.18661 l -0.04391,-0.0105 H 20.45553 c -0.05489,0.0105 -0.0988,0.0549 -0.109773,0.10975 l -0.07684,0.27444 c -0.02195,0.0768 0.03292,0.14269 0.109773,0.16466 l 0.03293,-0.0105 h 0.197588 l -0.801332,2.29422 c -0.02195,0.0768 0.01098,0.17563 0.08782,0.20856 l 0.04391,0.0329 h 1.229442 c 0.06586,0 0.120748,-0.0549 0.142703,-0.12074 l 0.07684,-0.26345 c 0.03292,-0.0768 -0.01097,-0.16466 -0.08782,-0.18661 z m 5.828868,-2.1625 -0.208565,-0.27443 v -0.0105 c -0.03292,-0.0329 -0.06586,-0.0658 -0.109773,-0.0658 h -0.790355 c -0.04391,0 -0.07684,0.0439 -0.109773,0.0658 l -0.219542,0.26346 h -0.340292 l -0.23052,-0.26346 v -0.0105 c -0.02196,-0.0329 -0.06586,-0.0549 -0.109773,-0.0549 h -0.439086 l 2.217385,-2.21738 -2.480836,-2.45888 2.217385,-2.28325 v -0.98795 l -0.307361,-0.39518 H 21.72888 l -0.362246,0.38421 v 0.31833 l -1.240421,-1.25139 -0.845241,0.82329 -0.263452,-0.27444 h -4.43477 l -0.351269,0.40616 v 1.03186 l 0.329314,0.31833 h 0.329316 v 2.86504 l -1.536802,1.53679 1.536802,1.53681 v 3.51269 l 0.570812,0.31833 h 1.27335 l 0.998921,-1.04283 2.371065,2.37107 1.591686,-1.59168 c 0.01097,0.0439 0.04391,0.0549 0.0988,0.0768 l 0.04391,-0.022 h 1.031852 c 0.06586,0 0.120748,-0.0105 0.131726,-0.0658 l 0.07684,-0.21954 c 0.02196,-0.0768 -0.01097,-0.1427 -0.08782,-0.16466 l -0.04391,0.0105 h -0.04391 l 0.373224,-1.17456 0.252474,-0.25247 h 0.548858 l -0.548858,1.74537 c -0.02195,0.0768 0.02196,0.12075 0.0988,0.15367 l 0.04391,-0.022 h 0.998922 c 0.05489,0 0.109773,-0.0105 0.131725,-0.0658 l 0.08782,-0.19758 c 0.03293,-0.0768 -0.01097,-0.14271 -0.07684,-0.17564 -0.01097,-0.0105 -0.03292,0 -0.05489,0 h -0.04391 l 0.46104,-1.42703 h 0.669606 l -0.559835,1.74537 c -0.02195,0.0768 0.02196,0.12075 0.0988,0.14271 l 0.04391,-0.0329 h 1.097715 c 0.05489,0 0.109773,-0.0105 0.131727,-0.0658 l 0.08782,-0.21954 c 0.03292,-0.0768 -0.01098,-0.14271 -0.08782,-0.16466 -0.01098,-0.0105 -0.03293,0.0105 -0.05489,0.0105 h -0.07684 l 0.614721,-2.03077 c 0.02195,-0.0549 0.01098,-0.12075 -0.01097,-0.15368 z m -7.003429,-9.03421 1.240418,1.24043 v 0.51592 l 0.373224,0.45006 h 0.175634 l -3.183375,3.07361 v -3.07361 h 0.362246 l 0.296384,-0.46104 v -0.97696 l -0.02195,-0.0329 z m -6.564339,6.49849 1.328237,-1.32824 v 2.65647 z m 4.270113,4.20424 6.410657,-6.58629 2.349112,2.36009 -2.217385,2.21738 h -0.01097 c -0.03293,0.0105 -0.05489,0.0329 -0.07684,0.0549 l -0.230519,0.26346 h -0.318337 l -0.241499,-0.26346 c -0.02195,-0.0329 -0.06586,-0.0658 -0.109773,-0.0658 h -0.965991 c -0.06586,0 -0.12075,0.0439 -0.142704,0.10975 l -0.08782,0.27443 c -0.02196,0.0768 0.01097,0.1427 0.08782,0.17564 h 0.164657 l -0.702537,2.07467 -1.657551,1.66854 z"
         id="path485"
         style="fill:#ffffff;stroke-width:0.109772" /><path
         fill="#03599c"
         d="m 71.140528,4.5311026 0.02295,-0.03071 c -0.09926,-0.08886 -0.225007,-0.1570289 -0.332967,-0.175102 l -5.82826,-1.0667941 c -0.09793,-0.02163 -0.215266,-0.00253 -0.335493,0.040161 -0.120229,0.042695 -0.219764,0.1118886 -0.285683,0.1804297 L 60.564635,7.98218 c -0.134744,0.1606741 -0.166023,0.4538436 -0.09842,0.6442034 l 1.981763,5.5805616 c 0.03914,0.110208 0.101866,0.223322 0.211142,0.308623 l -0.01648,0.01713 c 0.07856,0.06236 0.173595,0.107589 0.257961,0.122758 l 5.821799,1.080372 c 0.09795,0.02163 0.215264,0.0025 0.335491,-0.04017 0.120229,-0.0427 0.219762,-0.111893 0.285685,-0.180425 l 3.81644,-4.503094 c 0.134743,-0.160674 0.166022,-0.453843 0.09842,-0.644203 L 71.273117,4.777361 C 71.254677,4.693656 71.212637,4.607039 71.140534,4.5311005 Z m -3.403286,7.4139164 c 0.911726,-0.323771 1.535347,-1.109353 1.692857,-2.0001891 L 70.992945,10.2473 c -0.261453,1.424176 -1.259247,2.681107 -2.722014,3.200563 -2.184133,0.775627 -4.587242,-0.367976 -5.362869,-2.552109 -0.775628,-2.1841341 0.367977,-4.5872424 2.55211,-5.3628695 1.472786,-0.5230145 3.043405,-0.1668929 4.148086,0.7834243 L 68.572639,7.5302603 C 67.884999,6.928271 66.905586,6.7119574 65.99386,7.0357286 64.641301,7.516048 63.930586,9.0095049 64.410906,10.362066 c 0.48032,1.352559 1.973777,2.063272 3.326336,1.582953 z"
         id="path516"
         style="fill:#ffffff;stroke-width:0.106319" /><path
         d="m 8.2207023,46.109808 c -3.8101886,0 -6.9079906,3.097802 -6.9079906,6.90799 0,3.810189 3.097802,6.907991 6.9079906,6.907991 1.208898,0 2.3422417,-0.313018 3.3244707,-0.852705 l -5.0082933,-6.99434 v 3.950507 H 5.8029058 v -5.407662 h 0.7339739 l 5.4508373,8.181652 c 1.888904,-1.230486 3.140976,-3.356852 3.140976,-5.785443 0,-3.810188 -3.097801,-6.90799 -6.9079907,-6.90799 z m 2.3854157,9.131501 -0.8095314,-1.219692 v -3.400028 h 0.8095314 z"
         id="path261"
         style="fill:#ffffff;stroke-width:0.107937" /></g></g></svg>
