<?xml version="1.0" encoding="UTF-8" standalone="no"?>
<svg
   width="793.70099"
   height="600"
   viewBox="0 0 210.00005 158.75"
   version="1.1"
   id="svg2401"
   inkscape:version="1.4.4 (dcaf3e7d9e, 2026-05-05)"
   sodipodi:docname="peekingpugsvg.svg"
   xmlns:inkscape="http://www.inkscape.org/namespaces/inkscape"
   xmlns:sodipodi="http://sodipodi.sourceforge.net/DTD/sodipodi-0.dtd"
   xmlns="http://www.w3.org/2000/svg"
   xmlns:svg="http://www.w3.org/2000/svg"
   xmlns:rdf="http://www.w3.org/1999/02/22-rdf-syntax-ns#"
   xmlns:cc="http://creativecommons.org/ns#"
   xmlns:dc="http://purl.org/dc/elements/1.1/">
  <defs
     id="defs2395" />
  <sodipodi:namedview
     id="base"
     pagecolor="#000000"
     bordercolor="#666666"
     borderopacity="1.0"
     inkscape:pageopacity="0.0"
     inkscape:pageshadow="2"
     inkscape:zoom="0.39772148"
     inkscape:cx="445.03505"
     inkscape:cy="585.8371"
     inkscape:document-units="mm"
     inkscape:current-layer="layer1"
     inkscape:document-rotation="0"
     showgrid="false"
     inkscape:window-width="1027"
     inkscape:window-height="832"
     inkscape:window-x="0"
     inkscape:window-y="0"
     inkscape:window-maximized="0"
     inkscape:showpageshadow="2"
     inkscape:pagecheckerboard="false"
     inkscape:deskcolor="#d1d1d1" />
  <metadata
     id="metadata2398">
    <rdf:RDF>
      <cc:Work
         rdf:about="">
        <dc:format>image/svg+xml</dc:format>
        <dc:type
           rdf:resource="http://purl.org/dc/dcmitype/StillImage" />
      </cc:Work>
    </rdf:RDF>
  </metadata>
  <g
     inkscape:label="Layer 1"
     inkscape:groupmode="layer"
     id="layer1">
    <path
       style="fill:#ffffff;stroke-width:0.324817"
       d="m 13.342563,138.23154 c -2.786492,-2.6536 -1.410023,-9.64626 3.122854,-15.86435 2.184779,-2.99706 4.880592,-4.9489 8.690787,-6.29249 1.568569,-0.5531 4.189634,-1.49578 5.824588,-2.09485 1.63494,-0.59904 3.955786,-1.21196 5.157424,-1.36201 1.201652,-0.15003 2.197496,-0.33639 2.213004,-0.41403 0.01552,-0.0777 -0.2807,-1.25964 -0.658259,-2.62647 -0.377533,-1.36687 -0.747239,-3.62338 -0.82154,-5.01449 -0.07431,-1.39107 -0.182921,-2.60088 -0.241347,-2.68845 -0.0584,-0.0876 -0.316488,0.0964 -0.573473,0.40871 -1.24657,1.51528 -4.7448,1.67588 -6.378305,0.29279 -0.387504,-0.32806 -1.155853,-1.70583 -1.707426,-3.061717 -0.889609,-2.18672 -1.442182,-2.91859 -4.892602,-6.48011 -6.423657,-6.630371 -9.982654,-11.745511 -12.494721,-17.957941 -2.6885906,-6.6489 -3.3683166,-13.54052 -1.7340996,-17.58162 1.2828716,-3.17231 3.1732836,-5.16882 7.7811856,-8.217953 3.902491,-2.58235 5.855879,-3.55784 15.819528,-7.900508 1.619339,-0.705765 5.522882,-3.024077 8.830656,-5.244523 6.569536,-4.41004 10.467701,-6.705096 13.712628,-8.073301 5.288613,-2.229906 9.935632,-2.760031 15.121348,-1.724936 l 3.111109,0.620996 1.127875,-1.016349 c 3.389239,-3.054248 6.616201,-4.453777 10.147013,-4.400811 2.521879,0.03789 3.577879,-0.246355 6.145567,-1.653942 2.529303,-1.386606 5.163615,-2.136953 8.063105,-2.296706 1.653458,-0.09114 3.044448,0.109166 6.454058,0.929047 4.26329,1.02531 4.39087,1.035911 6.67885,0.557323 3.1978,-0.668906 6.79499,0.0096 9.8156,1.848386 1.13697,0.692536 2.28038,1.375785 2.54092,1.518317 0.27273,0.14921 1.67102,-0.283223 3.29583,-1.019218 4.7664,-2.159095 9.99745,-2.245399 16.44394,-0.271308 3.8665,1.183979 6.60411,2.369513 14.96777,6.481373 5.5882,2.747396 4.63106,2.432907 19.42725,6.383853 6.96227,1.859217 12.13643,4.144008 15.44399,6.81997 5.22251,4.225147 6.67306,12.80803 4.02547,23.81799 -1.47218,6.122 -3.40163,10.47072 -7.25794,16.35873 -1.76428,2.69377 -1.97419,3.1873 -2.61084,6.138761 -0.80844,3.74788 -1.53903,4.82779 -3.7886,5.6005 -1.1397,0.3915 -1.72556,0.38898 -3.12552,-0.0131 -0.94759,-0.27235 -1.97499,-0.65891 -2.28311,-0.85917 -0.48395,-0.31443 -0.55187,-0.25322 -0.49882,0.44941 0.42185,5.58649 0.39379,6.29233 -0.41694,10.488957 -0.45747,2.36809 -0.98927,4.72128 -1.18179,5.22937 l -0.35002,0.9238 2.98782,0.79575 c 8.3814,2.23228 12.73034,4.03193 15.60356,6.45692 2.74243,2.31457 6.70653,8.18115 7.58205,11.22084 0.73473,2.55086 0.86228,5.26853 0.31151,6.63763 -0.99227,2.46669 -6.47421,4.04994 -14.27527,4.12301 -2.40742,0.0225 -4.89881,0.30103 -6.76894,0.75677 -6.56965,1.60097 -10.63374,1.51219 -22.92018,-0.50064 -4.58653,-0.75143 -8.78644,-1.36545 -9.33315,-1.36464 -0.54669,0 -2.5547,-0.0198 -4.46223,-0.0466 -3.93659,-0.055 -31.25334,0.13257 -39.30394,0.26959 -2.92472,0.05 -10.620672,0.14902 -17.102121,0.22054 -29.823141,0.3292 -33.422136,0.51479 -38.849871,2.00311 -5.894678,1.61631 -12.659421,2.08798 -17.172357,1.19739 -1.720528,-0.33926 -3.865769,-0.47239 -6.148471,-0.38058 -2.483549,0.0998 -4.769618,-0.0614 -7.838967,-0.5532 -4.007831,-0.64216 -4.402254,-0.76023 -5.25644,-1.57363 z m 6.770056,-2.04272 c 0.517456,-1.24321 1.860292,-2.2116 2.805182,-2.02293 0.401511,0.0801 1.186722,0.48711 1.744926,0.90445 0.55819,0.41732 1.117735,0.69016 1.243438,0.60633 0.125744,-0.084 0.616972,-1.91296 1.091718,-4.06462 0.671005,-3.04105 1.072291,-4.22685 1.802471,-5.32601 0.961357,-1.44715 2.902356,-3.28445 3.371027,-3.19089 0.143803,0.0291 -0.01696,0.75594 -0.357356,1.61605 -0.758984,1.91789 -0.967738,5.48336 -0.460831,7.87061 0.19656,0.92572 0.451164,1.70176 0.565766,1.72463 0.114564,0.0225 0.671557,-0.31312 1.237651,-0.74667 0.631033,-0.4832 1.33901,-0.72638 1.829842,-0.62836 1.013538,0.20229 2.395109,2.22562 2.395595,3.50828 3.78e-4,1.28134 0.316583,1.50253 1.090457,0.76286 1.311334,-1.25328 1.834023,-6.42358 1.155641,-11.43115 -0.150023,-1.10734 -0.183762,-2.07271 -0.07497,-2.1453 0.357922,-0.23877 1.921835,2.34852 2.432688,4.02468 0.275556,0.90406 0.499671,2.16523 0.498055,2.8025 -0.0013,0.63726 0.02564,1.70708 0.06077,2.37737 l 0.0638,1.2187 1.295697,-0.86454 c 2.300722,-1.53508 4.338527,-0.38993 4.232026,2.37817 -0.04853,1.2629 -0.0163,1.30986 0.634269,0.92115 2.113238,-1.26255 2.334761,-8.35656 0.40535,-12.98037 -0.413452,-0.99082 -0.667964,-1.78479 -0.565569,-1.76428 0.102462,0.0203 0.70502,0.62506 1.339142,1.34375 1.772165,2.00838 2.587433,4.45416 2.78499,8.35492 l 0.07287,1.43748 1.14846,-0.63111 c 0.631649,-0.3471 1.437645,-0.52841 1.791106,-0.40298 0.563714,0.20016 1.482943,1.82097 1.715687,3.02523 0.154496,0.79928 0.939525,-0.37124 1.233823,-1.83977 0.775796,-3.87193 -0.635622,-8.83697 -3.189645,-11.21912 -0.503499,-0.46965 -1.935568,-1.27025 -3.182358,-1.77922 -1.246806,-0.50893 -2.921811,-1.37805 -3.722216,-1.93141 -3.054418,-2.11145 -8.313661,-2.82744 -12.646557,-1.72164 -1.309377,0.33415 -3.578214,1.28513 -5.041862,2.11316 -2.038384,1.15321 -2.89494,1.45891 -3.660132,1.30616 -1.420636,-0.2836 -4.201209,0.58041 -5.636156,1.75127 -1.958414,1.59802 -2.809589,3.40108 -3.386706,7.17429 -0.491136,3.2111 -0.331352,5.19596 0.60608,7.52889 0.446205,1.11052 0.79534,1.09392 1.275875,-0.0605 z m 44.68331,-9.64522 c 0.568897,-1.26118 4.047571,-11.1499 3.965562,-11.2728 -0.13599,-0.20377 -4.008137,3.12697 -5.367312,4.61687 -2.089614,2.29069 -2.102149,2.38501 -0.655075,4.92919 0.710571,1.24925 1.394661,2.30269 1.52018,2.34093 0.12548,0.0384 0.367011,-0.23816 0.536645,-0.61419 z m -4.652714,-7.51987 c 0.792616,-1.34519 1.262787,-4.06214 0.861143,-4.97626 -0.187495,-0.42672 -1.35879,-1.83927 -2.602873,-3.13884 -4.281652,-4.47278 -7.496645,-10.32277 -9.384874,-17.076587 -1.316451,-4.70869 -1.140135,-8.664361 0.505499,-11.340491 0.376638,-0.61243 0.43,-0.44184 0.394513,1.26151 -0.02262,1.08338 0.04814,2.43478 0.157297,3.00309 0.19135,0.996701 0.230337,0.945861 1.101517,-1.43628 1.83742,-5.02416 4.189833,-7.68991 10.343746,-11.72134 8.749106,-5.73159 11.308544,-7.02574 14.573795,-7.3689 2.355928,-0.24757 3.294809,-0.0867 4.817664,0.82555 3.204235,1.91943 4.444039,4.56865 5.499252,11.7508 0.82489,5.61451 1.130428,6.98265 1.579333,7.07226 0.165653,0.033 3.041921,-1.6955 6.39171,-3.84132 4.982495,-3.19166 6.551423,-4.02424 8.624003,-4.57645 5.33742,-1.422 10.27195,-0.66216 18.55527,2.85722 5.14237,2.18489 5.5057,2.28627 5.64767,1.57495 0.0584,-0.29223 -0.29512,-2.18859 -0.78544,-4.21428 -2.36951,-9.78906 -1.83494,-14.35227 1.98045,-16.90593 3.53979,-2.36919 6.24876,-1.97954 16.73533,2.40703 6.66867,2.78947 9.5343,4.22805 11.50107,5.77362 1.73315,1.36199 4.90463,5.15312 5.46645,6.5345 0.2444,0.60088 0.54542,1.11315 0.66895,1.13832 0.30538,0.061 -0.09,-2.55713 -0.61063,-4.04774 -0.23231,-0.66513 -0.35542,-1.25398 -0.27359,-1.3086 0.37093,-0.2475 2.55406,3.89996 2.907,5.52271 1.25927,5.78988 0.14338,14.938381 -2.61689,21.454141 -0.5437,1.28338 -1.77783,3.654087 -2.74254,5.268267 -1.03944,1.73916 -1.73889,3.24346 -1.71692,3.6925 0.038,0.77835 1.97355,3.91473 2.47792,4.01544 0.15492,0.0308 0.98373,-0.31779 1.84175,-0.77485 1.93337,-1.02987 4.81033,-1.74466 7.09454,-1.76273 1.64911,-0.0131 1.76793,-0.0755 2.40491,-1.26558 1.11855,-2.08975 2.61076,-10.526077 2.50429,-14.158197 -0.18111,-6.1776 -1.96712,-14.264741 -4.78232,-21.654421 -4.00583,-10.51505 -8.58602,-17.5754 -15.48628,-23.872323 -3.07215,-2.80355 -5.67341,-4.731868 -12.27211,-9.097345 -6.54321,-4.328762 -8.35448,-6.192873 -6.93656,-7.13891 1.05744,-0.705554 6.85178,1.372273 11.99657,4.302121 5.17223,2.945351 9.45117,6.651208 14.28675,12.373344 1.43683,1.70015 2.63152,2.99545 2.65491,2.87831 0.0234,-0.11707 -0.55776,-1.46391 -1.2914,-2.99292 -1.74667,-3.6402 -5.37932,-9.268054 -7.9967,-12.388939 -2.60298,-3.103636 -7.58271,-7.135821 -10.501,-8.50277 l -2.21039,-1.035316 1.42902,-0.60391 1.42901,-0.603909 -1.5881,-0.311141 c -1.81907,-0.356077 -6.85781,-0.599909 -8.85173,-0.427934 -1.95735,0.168829 -3.81707,0.749225 -5.40268,1.686148 -1.74636,1.031911 -3.39297,1.506479 -4.47656,1.290181 -0.46112,-0.0921 -1.77367,-0.834013 -2.91677,-1.648839 -1.77226,-1.263212 -2.45345,-1.557747 -4.62475,-1.999649 -2.60193,-0.529309 -2.48046,-0.542165 -6.5214,0.683086 -0.63637,0.192909 -1.19621,0.0731 -2.70012,-0.577546 -5.9179,-2.560809 -11.480858,-2.09997 -16.23524,1.344912 l -2.060809,1.493192 -2.024784,-0.389703 c -3.698796,-0.711819 -5.914206,0.01429 -9.097661,2.981672 -2.821661,2.630047 -3.630097,2.824203 -7.437802,1.786248 -2.236968,-0.60979 -3.468803,-0.773016 -5.259514,-0.696977 -2.455653,0.104168 -7.976877,1.39809 -9.555667,2.23924 l -0.926607,0.493708 1.792658,0.145641 1.792644,0.145708 -2.097137,0.96487 c -2.220752,1.021808 -2.585553,1.325025 -1.489166,1.237732 0.370233,-0.02907 0.996636,-0.07982 1.392003,-0.112197 0.690051,-0.05631 0.677923,-0.02245 -0.302692,0.850437 -2.612857,2.325228 -4.961562,5.503637 -6.746867,9.130425 -0.886176,1.8002 -1.456125,3.67984 -2.503397,8.256203 -0.74578,3.2589 -1.329277,6.34697 -1.296632,6.86244 0.05195,0.82147 0.169006,0.67944 0.947469,-1.14992 2.577043,-6.05619 8.000513,-13.645673 12.462654,-17.43997 1.992835,-1.694504 6.757995,-4.743907 7.707174,-4.932019 1.203966,-0.238728 1.927817,0.157345 1.766326,0.966299 -0.139265,0.697755 -2.054983,3.094887 -6.507851,8.143407 -6.87611,7.795843 -10.917272,13.972613 -13.738053,20.998063 -0.951388,2.36957 -1.649132,5.18708 -3.738958,15.09804 -1.610765,7.638991 -2.678242,13.413091 -2.861952,15.477031 -0.444508,5.000477 0.155155,9.797447 1.663997,13.311057 l 0.704504,1.64056 2.70902,0.54071 c 2.415744,0.48225 3.17381,0.81133 7.002485,3.04014 2.361408,1.37458 4.564878,2.78328 4.896599,3.13033 0.883083,0.92395 1.289566,0.89154 1.904564,-0.15224 z M 92.230227,77.474802 c 0.146926,-2.30368 -0.971634,-5.74917 -2.714279,-8.36108 -4.794686,-7.18615 -12.761422,-8.93961 -20.798356,-4.57755 l -2.373543,1.28822 2.160005,-2.09508 c 7.459468,-7.2355 15.785417,-6.5968 21.661556,1.66164 1.41082,1.98278 1.992943,3.19731 2.537919,5.29491 0.754424,2.90382 0.704144,6.16294 -0.115354,7.479 -0.409984,0.65842 -0.440204,0.60013 -0.357919,-0.69006 z m 25.839553,-5.23276 c -1.13247,-2.63369 -1.28704,-4.70552 -0.60714,-8.13782 1.32892,-6.70888 5.00562,-11.49701 9.38545,-12.22257 1.67659,-0.27777 2.39751,-0.2091 5.25669,0.50085 3.41202,0.84713 4.85521,1.55368 8.2417,4.03478 1.92385,1.40952 1.93337,1.78196 0.0202,0.78972 -0.73178,-0.37952 -3.1249,-1.04877 -5.4432,-1.52231 -3.99146,-0.81538 -4.21823,-0.82456 -6.43519,-0.26932 -5.07024,1.27018 -8.25762,5.02361 -9.4705,11.15221 -0.39797,2.01029 -0.45478,3.32224 -0.22084,5.08993 0.17334,1.3098 0.26821,2.41335 0.2108,2.45225 -0.0573,0.0391 -0.4795,-0.80159 -0.93796,-1.86772 z m -14.28272,-9.48057 c -3.78236,-4.7726 -6.231628,-11.335383 -6.902588,-18.495283 -0.23275,-2.483512 0.68836,-9.300796 1.4733,-10.904199 0.48097,-0.982417 0.49899,-0.945596 1.34619,2.752941 0.958678,4.185146 2.316658,8.467998 3.539548,11.163038 1.10408,2.43329 1.46449,1.91897 1.93158,-2.75636 0.45247,-4.529085 0.40613,-8.788965 -0.12627,-11.604859 -0.22285,-1.178665 -0.34791,-2.181401 -0.2779,-2.228045 0.3009,-0.200804 2.75747,4.352564 3.52001,6.524457 1.1155,3.177306 1.90047,7.931257 1.86747,11.309767 -0.0528,5.391393 -2.98954,16.673143 -4.27361,16.416853 -0.24267,-0.0484 -1.18668,-1.02872 -2.09778,-2.17831 z m -13.95173,-6.8686 c -1.983666,-1.01395 -4.732223,-2.17859 -6.107902,-2.58795 l -2.501213,-0.74436 1.909257,-0.52749 c 3.654484,-1.009653 6.789664,0.34993 9.668569,4.19274 0.695711,0.92868 1.123866,1.64851 0.951459,1.59967 -0.172408,-0.0489 -1.936485,-0.91856 -3.92017,-1.93261 z M 69.663078,49.922669 c 0.02251,-0.11247 0.831626,-1.09598 1.798161,-2.18563 1.96869,-2.21928 4.546058,-5.682076 7.816336,-10.501361 2.159373,-3.182208 4.608436,-6.064576 4.847903,-5.705659 0.06677,0.100224 -0.07646,0.498715 -0.318355,0.88554 -0.241981,0.386902 -0.866305,1.959768 -1.387422,3.495258 -2.410189,7.101888 -4.937018,10.236442 -10.53758,13.072132 -1.242931,0.6293 -2.241511,1.05219 -2.219043,0.93972 z m 45.457642,1.26552 c 0.56126,-2.80542 1.52782,-4.08314 3.3686,-4.45388 1.11278,-0.2241 2.51564,-0.14052 2.45834,0.14649 -0.025,0.12534 -5.85984,6.349503 -6.15089,6.561293 -0.0818,0.0596 0.064,-0.95466 0.32395,-2.253903 z M 85.436131,41.481331 c -0.756208,-4.211432 1.412154,-8.56887 4.729345,-9.50375 0.755882,-0.213065 1.363476,-0.332995 1.350198,-0.266521 -0.01333,0.06658 -0.724636,1.08267 -1.58082,2.258197 -1.473179,2.022597 -2.221386,3.588758 -3.595856,7.526733 l -0.594422,1.703014 z m 42.173479,-0.595793 c -2.09113,-0.726708 -4.68125,-2.137606 -6.69987,-3.649687 -1.64408,-1.231458 -2.67274,-2.390839 -4.43873,-5.002523 -1.26431,-1.869713 -2.18951,-3.472396 -2.05603,-3.561454 0.1335,-0.08903 2.2891,1.369731 4.79023,3.241688 4.79608,3.589593 6.41091,4.562876 11.70523,7.054909 1.80021,0.84731 4.0026,2.022165 4.89419,2.610648 l 1.62108,1.070036 -2.03107,-0.189206 c -2.12214,-0.197696 -6.19132,-1.020657 -7.78506,-1.574296 z M 76.913282,110.49657 c 3.845377,-5.48479 12.905297,-16.430257 16.823203,-20.324437 2.874597,-2.85723 2.881757,-2.88069 0.462144,-1.51183 -3.536625,2.00069 -7.828116,5.13708 -9.961405,7.28005 -2.596305,2.60818 -6.956362,8.420407 -8.856995,11.806947 -1.69154,3.01391 -2.99119,6.46384 -3.562692,9.45705 l -0.376358,1.97107 1.870269,-3.10451 c 1.028649,-1.70758 2.649464,-4.21598 3.601824,-5.57434 z m 30.318498,11.24373 c 1.50319,-1.05976 3.02308,-2.40621 3.37755,-2.99232 0.35446,-0.58595 0.7612,-1.04214 0.90384,-1.01362 0.14266,0.0285 0.92629,0.61952 1.74143,1.3135 0.81513,0.69395 2.6714,1.96349 4.12505,2.82122 3.39566,2.00361 10.80184,5.1523 9.92192,4.21823 -0.0626,-0.0665 -1.23889,-0.83176 -2.61393,-1.70065 -11.78989,-7.45 -11.77287,-7.43735 -12.243,-9.07093 -0.15821,-0.54973 -0.65353,-3.72885 -1.10068,-7.06468 -0.44717,-3.33581 -0.95314,-6.47691 -1.1244,-6.98018 -0.28554,-0.83918 -0.35227,-0.6306 -0.80507,2.51527 -0.53857,3.74184 -0.46878,5.55594 0.34896,9.06933 0.68747,2.95381 0.44979,4.15191 -1.09196,5.50445 -1.75331,1.5382 -5.09793,4.78688 -5.74213,5.57743 l -0.55725,0.68386 1.06332,-0.47712 c 0.58483,-0.26234 2.2932,-1.34413 3.79638,-2.40379 z m 45.14563,10.03344 c 0.59778,-1.19333 1.59994,-1.51022 2.85118,-0.90147 0.57705,0.28074 0.62986,0.20684 0.64267,-0.89885 0.0196,-1.68949 0.72408,-4.85405 1.3452,-6.04228 0.73063,-1.39776 2.40751,-3.20907 3.76299,-4.06467 l 1.14558,-0.72307 -1.23965,1.8636 c -1.60635,2.41489 -2.69797,7.17826 -2.30019,10.03696 0.29023,2.08567 1.8066,4.72775 2.83079,4.93219 0.6666,0.13306 0.68257,0.0968 0.39618,-0.89813 -0.93326,-3.24281 2.04125,-5.01702 4.7635,-2.84134 l 0.88423,0.70671 -0.0142,-1.11267 c -0.0704,-5.4765 0.99869,-8.62739 3.53881,-10.4304 0.45515,-0.32305 0.92676,-0.49484 1.04801,-0.38179 0.12126,0.11313 0.0798,1.37184 -0.0922,2.79718 -0.4043,3.35114 -0.22986,6.29271 0.52168,8.7988 0.65897,2.19739 1.1156,2.94353 2.137,3.49201 0.63685,0.34208 0.69055,0.27404 0.99734,-1.26288 0.68822,-3.44779 2.49835,-4.67682 4.75327,-3.22725 0.63761,0.40986 1.23738,0.69314 1.33278,0.62947 0.0954,-0.0637 0.30343,-0.85276 0.46223,-1.75352 0.52276,-2.96545 0.10403,-6.22381 -1.14375,-8.90065 -0.75638,-1.62263 -0.7654,-1.73246 -0.13189,-1.606 0.80127,0.15988 2.15982,1.19739 3.38855,2.58758 1.14851,1.29948 2.7246,5.17591 3.29481,8.10357 0.52602,2.7008 0.91208,2.92903 2.74804,1.62504 1.72322,-1.22391 2.88634,-0.98707 4.10235,0.83545 1.14184,1.71141 1.61698,1.46386 2.06337,-1.07504 1.09876,-6.2494 -2.04025,-13.41271 -6.62339,-15.11452 -0.74543,-0.27685 -2.1544,-0.47925 -3.2436,-0.46612 -1.79925,0.0215 -2.09055,-0.0693 -4.43514,-1.38743 -3.54706,-1.99399 -7.58114,-2.97924 -11.32856,-2.76685 -3.81814,0.2163 -5.17131,0.6671 -8.69624,2.89673 -1.67796,1.06141 -3.80657,2.18727 -4.73021,2.50198 -3.43905,1.17162 -6.20399,4.61825 -7.0279,8.76044 -0.50718,2.54915 -0.26407,5.81817 0.53219,7.16039 0.42429,0.71527 0.4357,0.71512 0.66587,-0.0105 0.12876,-0.40548 0.48804,-1.24416 0.79834,-1.86356 z M 66.843064,106.47355 c 1.834175,0.0318 4.624651,-0.64199 5.196508,-1.25503 0.13953,-0.14966 -0.458201,-0.1218 -1.328279,0.0617 -7.588987,1.60116 -13.530532,-2.52285 -14.632641,-10.156507 l -0.327143,-2.26589 -0.132187,1.60286 c -0.382795,4.64083 2.137032,8.921137 6.445713,10.949207 1.951286,0.91839 2.418851,1.0225 4.778029,1.06366 z m 3.500315,-1.88193 c 1.734951,-0.29117 4.840382,-1.62817 4.604206,-1.98216 -0.05564,-0.0834 -0.866708,0.0214 -1.802327,0.23218 -3.512723,0.79269 -7.120924,-0.71048 -9.189469,-3.828357 -4.730988,-7.13068 0.920584,-16.849731 8.89976,-15.305101 4.279451,0.82856 7.579987,4.425181 8.305918,9.051241 0.106537,0.67902 0.254845,0.98087 0.329561,0.67095 0.232885,-0.96626 -0.803918,-4.03544 -1.936897,-5.73352 -1.315767,-1.972061 -3.562116,-3.694251 -6.155698,-4.719291 -4.948595,-1.95575 -10.644952,-0.43002 -13.907452,3.72503 -1.219619,1.553291 -1.361239,1.918971 -2.00495,5.176561 -0.588941,2.98051 -0.627822,3.72222 -0.259681,4.9551 0.824566,2.76136 2.683949,5.303267 4.885944,6.679487 1.343863,0.83995 6.00934,1.45089 8.231085,1.07788 z m 86.446831,8.90683 c 0.17651,-0.10023 -1.56242,-1.65044 -3.86429,-3.44493 -2.84793,-2.22024 -4.97828,-4.19791 -6.66722,-6.18947 -7.46267,-8.799837 -13.31803,-13.212117 -21.92152,-16.518867 -3.8821,-1.492101 -4.13719,-1.439201 -1.15372,0.23949 4.91482,2.7653 12.16734,8.86735 20.26089,17.046747 3.17586,3.20951 7.83012,8.87439 8.83652,10.75531 0.30467,0.56935 0.50074,0.52244 2.26101,-0.54134 1.06007,-0.64056 2.07183,-1.24673 2.24833,-1.34694 z m -52.43915,-13.34146 c 1.33251,-0.363427 2.59577,-2.072057 2.45717,-3.323397 -0.0624,-0.56369 -0.20634,-0.48364 -0.91029,0.50668 -1.38044,1.9419 -3.33773,2.17748 -7.117628,0.85647 -1.41605,-0.49486 -1.60889,-0.50721 -1.14464,-0.0734 1.80998,1.69141 4.728968,2.575417 6.715388,2.033637 z M 69.408458,90.902123 c 1.437039,-1.22837 1.440419,-3.19729 0.008,-4.371291 -2.388365,-1.95678 -5.521067,0.757211 -4.102194,3.553941 0.397474,0.78346 0.760641,1.02454 1.879809,1.24794 1.119187,0.22338 1.547064,0.14021 2.214876,-0.43059 z m 50.145842,7.63377 c 1.60503,-0.83653 3.13149,-2.28551 3.30066,-3.13302 0.0972,-0.48667 -0.1599,-0.38866 -1.16516,0.44425 -0.7094,0.58782 -1.93971,1.33772 -2.73401,1.66649 -1.70621,0.70616 -3.25357,0.34876 -4.57628,-1.05692 -0.91629,-0.97372 -1.19417,-0.71164 -0.5292,0.49915 1.17848,2.14567 3.42474,2.76795 5.70399,1.58005 z m -18.93885,-3.4759 c 0.42121,-0.25999 1.24979,-1.20723 1.84131,-2.10504 1.52143,-2.30918 2.82029,-2.26765 5.27417,0.16863 0.66922,0.66444 1.35338,1.15722 1.52033,1.09502 0.16696,-0.0623 0.72266,-0.68016 1.23489,-1.3733 1.21062,-1.63819 2.59246,-2.62136 3.44504,-2.45122 0.37409,0.0747 1.47713,0.81655 2.45117,1.64862 1.84651,1.57726 2.72006,1.93603 3.86704,1.58825 0.9871,-0.2992 0.97541,-0.91664 -0.0426,-2.24677 -3.84282,-5.021071 -11.30213,-6.672561 -17.02437,-3.76907 -2.11498,1.07311 -5.401168,5.55412 -5.150018,7.02253 0.12929,0.75638 1.64128,1.00361 2.582978,0.42235 z m 51.4936,4.57022 c 1.22481,-0.32366 2.92262,-1.06514 3.77292,-1.64757 1.71226,-1.17289 3.59497,-3.51202 3.81955,-4.7455 0.10588,-0.58144 -0.11786,-0.38273 -0.8216,0.72967 -1.96868,3.11198 -5.62013,5.01691 -10.03194,5.2335 -1.30331,0.064 -2.19705,0.2614 -2.11997,0.46836 0.22559,0.605677 3.01972,0.585787 5.38104,-0.0385 z m -3.52088,-1.17541 c 4.29748,-0.2486 7.18925,-1.66461 9.27543,-4.54189 0.9722,-1.34085 1.27414,-2.09469 1.68197,-4.19945 0.92852,-4.791971 -0.78316,-8.690051 -5.31565,-12.105541 -2.03762,-1.53543 -2.33899,-1.66307 -5.3447,-2.26302 -2.90353,-0.57958 -3.38592,-0.58513 -5.45274,-0.0625 -2.84947,0.72056 -5.03729,2.13073 -6.67816,4.30454 -1.08731,1.4404 -1.36107,2.09706 -1.83352,4.39784 -0.47828,2.32913 -0.48265,2.978361 -0.0315,4.677921 0.46496,1.75159 0.69589,2.08728 2.05387,2.98551 0.8415,0.55661 2.92335,2.24551 4.62632,3.75311 3.38161,2.99363 3.93001,3.23219 7.0187,3.05351 z m -4.08734,-3.30273 c -2.01472,-1.56506 -2.87778,-2.94723 -3.53052,-5.65391 -1.57894,-6.547531 4.47773,-13.459311 10.70495,-12.216251 3.38793,0.67626 6.54079,3.98807 7.45829,7.83429 0.59396,2.489831 -0.28542,6.544561 -1.83673,8.468991 -1.34835,1.67269 -4.39015,3.40883 -6.20805,3.54334 -2.43201,0.17998 -4.68021,-0.49459 -6.58794,-1.97646 z m 2.71534,-10.092071 c 1.16711,-0.35135 1.72441,-0.97323 1.97316,-2.20189 0.32042,-1.58257 -0.34667,-2.72617 -1.90123,-3.25927 -1.13436,-0.38899 -1.42162,-0.34955 -2.44983,0.3365 -1.55114,1.03494 -1.83465,2.38352 -0.82062,3.90331 0.79697,1.19448 1.89488,1.61373 3.19852,1.22135 z"
       id="path1488"
       sodipodi:nodetypes="sssssssssssssssssssscsssssssssssssssssssssscsssssssssscscsssssssssssssssssssssscssssssscssscssssssssssssssssscssssssssssssssssssssscssssssssssssssscsssssccccsssscscscssssscccsssssssssssssscscsssccssscssssssssssscccssssssssssssssssscsssssssssssscssscssssscscsssssscsccsssssscssssssssssssssssscsssssssscssssscssssssssssssssssssssssscsssssscscssssssssssssssssssssssssssssssssssssssssssssssssssssssssssssssssssssssssssssssssssssssss"
       inkscape:export-filename="C:\Users\User\Documents\Decal Stuff\Ebay Listing Images\Graphic Design Garage\Peeking Pug 2\0.png"
       inkscape:export-xdpi="300"
       inkscape:export-ydpi="300" />
  </g>
</svg>
